{"title":"[MARATHI] Ashi Hi Banwa Banwi 1989 (RRG)","uid":8244735,"size":1459989300,"categoryP":"video","categoryS":"movies","magnet":"?xt=urn:btih:fb17ae95fae6711f88f1372dd98a104b09578e23&amp;dn=%5BMARATHI%5D+Ashi+Hi+Banwa+Banwi+1989+%28RRG%29&amp;tr=udp%3A%2F%2Ftracker.openbittorrent.com%3A80&amp;tr=udp%3A%2F%2Fopen.demonii.com%3A1337&amp;tr=udp%3A%2F%2Ftracker.coppersurfer.tk%3A6969&amp;tr=udp%3A%2F%2Fexodus.desync.com%3A6969","seeders":1,"leechers":0,"uploader":"SJonam","files":1,"time":1363029319,"description":" &lt;a href=&quot;http://desibbrg.org/images/66952052392581364616.gif&quot; rel=&quot;nofollow&quot; target=&quot;_NEW&quot;&gt;http://desibbrg.org/images/66952052392581364616.gif&lt;/a&gt; &lt;a href=&quot;\nhttp://desibbrg.org/images/01912839499678979211.jpg&quot; rel=&quot;nofollow&quot; target=&quot;_NEW&quot;&gt;\nhttp://desibbrg.org/images/01912839499678979211.jpg&lt;/a&gt; &lt;a href=&quot;\nhttp://desibbrg.org/images/28611945389648491947.png&quot; rel=&quot;nofollow&quot; target=&quot;_NEW&quot;&gt;\nhttp://desibbrg.org/images/28611945389648491947.png&lt;/a&gt; &lt;a href=&quot;\nhttp://desibbrg.org/images/60486577120168039723.png&quot; rel=&quot;nofollow&quot; target=&quot;_NEW&quot;&gt;\nhttp://desibbrg.org/images/60486577120168039723.png&lt;/a&gt; &lt;a href=&quot;\nhttp://desibbrg.org/images/72563957783986587215.png&quot; rel=&quot;nofollow&quot; target=&quot;_NEW&quot;&gt;\nhttp://desibbrg.org/images/72563957783986587215.png&lt;/a&gt; &lt;a href=&quot;\nhttp://desibbrg.org/images/43379903195877504760.png&quot; rel=&quot;nofollow&quot; target=&quot;_NEW&quot;&gt;\nhttp://desibbrg.org/images/43379903195877504760.png&lt;/a&gt;\n\nCast - \nDirected by - Sachin\nStarring - \nSachin,\nAshok Saraf,\nLaxmikant Berde,\nSiddharth Ray,\nSupriya,\nAshwini Bhave,\nPriya Arun,\nNivedita Joshi,\nNayantara,\nViju Khote,\nSudhir Joshi\n\nMusic by - Anil Mohile, Arun Paudwal\n\n\nMedia Info - \nVideo\nID                             : 0\nFormat                         : MPEG-4 Visual\nFormat settings, Matrix        : Default (H.263)\nCodec ID                       : XVID\nCodec ID/Hint                  : XviD\nDuration                       : 2h 16mn\nBit rate                       : 1 229 Kbps\nWidth                          : 640 pixels\nHeight                         : 480 pixels\nDisplay aspect ratio           : 4:3\nFrame rate                     : 29.970 fps\nColor space                    : YUV\nChroma subsampling             : 4:2:0\nBit depth                      : 8 bits\nScan type                      : Progressive\nCompression mode               : Lossy\nBits/(Pixel*Frame)             : 0.134\nStream size                    : 1.17 GiB (86%)\n\nAudio\nFormat                         : AC-3\nFormat/Info                    : Audio Coding 3\nMode extension                 : CM (complete main)\nFormat settings, Endianness    : Big\nCodec ID                       : 2000\nDuration                       : 2h 16mn\nBit rate mode                  : Constant\nBit rate                       : 192 Kbps\nChannel(s)                     : 6 channels\nChannel positions              : Front: L C R, Side: L R, LFE\nSampling rate                  : 48.0 KHz\nBit depth                      : 16 bits\nCompression mode               : Lossy\nStream size                    : 187 MiB (13%)\nAlignment                      : Aligned on interleaves\nInterleave, duration           : 64 ms (1.92 video frames)\nInterleave, preload duration   : 192 ms\n\nRipper : Unknown\n\nSeeding 24x7... Extreme Seeding...\n\n\nEnjoy!","torrent":{"xt":"urn:btih:fb17ae95fae6711f88f1372dd98a104b09578e23","amp;dn":"%5BMARATHI%5D+Ashi+Hi+Banwa+Banwi+1989+%28RRG%29","amp;tr":["udp%3A%2F%2Ftracker.openbittorrent.com%3A80","udp%3A%2F%2Fopen.demonii.com%3A1337","udp%3A%2F%2Ftracker.coppersurfer.tk%3A6969","udp%3A%2F%2Fexodus.desync.com%3A6969"],"infoHash":"fb17ae95fae6711f88f1372dd98a104b09578e23","infoHashBuffer":{"type":"Buffer","data":[251,23,174,149,250,230,113,31,136,241,55,45,217,138,16,75,9,87,142,35]},"announce":[],"urlList":[]}}